<svg width="77" height="25" viewBox="0 0 77 25" fill="none" xmlns="http://www.w3.org/2000/svg">
<path d="M0.294094 10.6033H1.55046V6.74795H4.26083C6.3783 6.74795 7.8323 5.57583 7.8323 3.6976C7.84642 1.79113 6.43477 0.64725 4.26083 0.64725H0.294094V10.6033ZM1.55046 5.60407V1.77701H4.26083C5.70071 1.77701 6.56182 2.52548 6.56182 3.6976C6.56182 4.8556 5.70071 5.60407 4.26083 5.60407H1.55046Z" fill="white"/>
<path d="M16.3572 10.9563C19.5052 10.9563 21.7356 8.75327 21.7356 5.61819C21.7356 2.51135 19.5052 0.294201 16.3572 0.294201C13.2092 0.294201 10.9788 2.51135 10.9788 5.61819C10.9788 8.75327 13.2092 10.9563 16.3572 10.9563ZM16.3572 9.82654C13.9715 9.82654 12.2634 8.0613 12.2634 5.61819C12.2634 3.17509 13.9715 1.42396 16.3572 1.42396C18.7429 1.42396 20.4369 3.17509 20.4369 5.61819C20.4369 8.0613 18.7429 9.82654 16.3572 9.82654Z" fill="white"/>
<path d="M25.6354 10.6033H31.9314V9.47349H26.92V0.64725H25.6354V10.6033Z" fill="white"/>
<path d="M37.0455 10.6033H38.3442V6.95978L41.9157 0.64725H40.5323L37.7654 5.73117H37.6243L34.801 0.64725H33.4458L37.0455 6.95978V10.6033Z" fill="white"/>
<path d="M43.4834 10.6033H44.7115L45.5585 8.37198H50.6263L51.4733 10.6033H52.7015L48.9888 0.64725H47.2384L43.4834 10.6033ZM45.9397 7.31283L48.043 1.77701H48.1701L50.2593 7.31283H45.9397Z" fill="white"/>
<path d="M56.2996 10.6033H57.5842V2.34189H57.7254L62.4403 10.6033H64.2754V0.64725H62.9908V8.90862H62.8638L58.1489 0.64725H56.2996V10.6033Z" fill="white"/>
<path fill-rule="evenodd" clip-rule="evenodd" d="M0 10.8975V0.353049H4.26083C5.39642 0.353049 6.36662 0.651779 7.05642 1.23238C7.75228 1.81808 8.13376 2.66682 8.12639 3.69868C8.12612 4.71956 7.72773 5.56596 7.02976 6.15241C6.3368 6.73465 5.3716 7.04217 4.26083 7.04217H1.84455V10.8975H0ZM7.8323 3.6976C7.84642 1.79113 6.43477 0.64725 4.26083 0.64725H0.294094V10.6033H1.55046V6.74795H4.26083C6.3783 6.74795 7.8323 5.57583 7.8323 3.6976ZM1.84455 2.07123V5.30987H4.26083C4.93254 5.30987 5.434 5.13531 5.76221 4.85974C6.08469 4.58898 6.26772 4.19809 6.26772 3.69761C6.26772 3.18897 6.0839 2.79465 5.76163 2.52263C5.43365 2.24579 4.93257 2.07123 4.26083 2.07123H1.84455ZM20.4339 9.67191C19.4227 10.6741 18.0014 11.2505 16.3572 11.2505C14.713 11.2505 13.2917 10.6741 12.2806 9.67191C11.2692 8.66953 10.6847 7.25763 10.6847 5.6182C10.6847 2.3463 13.0494 0 16.3572 0C19.665 0 22.0297 2.3463 22.0297 5.6182C22.0297 7.25763 21.4453 8.66953 20.4339 9.67191ZM12.5575 5.6182C12.5575 7.90686 14.1419 9.53234 16.3572 9.53234C18.5712 9.53234 20.1428 7.90823 20.1428 5.6182C20.1428 3.3295 18.5725 1.71818 16.3572 1.71818C14.1406 1.71818 12.5575 3.33087 12.5575 5.6182ZM25.3413 10.8975V0.353049H27.2141V9.17929H32.2254V10.8975H25.3413ZM31.9314 9.47349V10.6033H25.6354V0.64725H26.92V9.47349H31.9314ZM36.7514 10.8975V7.03781L32.9394 0.353049H34.974L37.693 5.24906L40.3575 0.353049H42.4201L38.6383 7.03727V10.8975H36.7514ZM38.3442 6.95978L41.9157 0.64725H40.5323L37.7654 5.73117H37.6243L34.801 0.64725H33.4458L37.0455 6.95978V10.6033H38.3442V6.95978ZM43.0581 10.8975L47.035 0.353049H49.193L53.1251 10.8975H51.2704L50.4234 8.66619H45.7614L44.9144 10.8975H43.0581ZM45.5585 8.37198H50.6263L51.4733 10.6033H52.7015L48.9888 0.64725H47.2384L43.4834 10.6033H44.7115L45.5585 8.37198ZM45.9397 7.31283H50.2593L48.1701 1.77701H48.043L45.9397 7.31283ZM46.3661 7.01863H49.8339L48.1058 2.43976L46.3661 7.01863ZM56.0055 10.8975V0.353049H58.3196L62.6967 8.02254V0.353049H64.5695V10.8975H62.2695L57.8783 3.20323V10.8975H56.0055ZM57.5842 2.34189H57.7254L62.4403 10.6033H64.2754V0.64725H62.9908V8.90862H62.8638L58.1489 0.64725H56.2996V10.6033H57.5842V2.34189ZM1.55046 5.60407H4.26083C5.70071 5.60407 6.56182 4.8556 6.56182 3.6976C6.56182 2.52548 5.70071 1.77701 4.26083 1.77701H1.55046V5.60407ZM21.7356 5.61819C21.7356 8.75327 19.5052 10.9563 16.3572 10.9563C13.2092 10.9563 10.9788 8.75327 10.9788 5.61819C10.9788 2.51135 13.2092 0.294201 16.3572 0.294201C19.5052 0.294201 21.7356 2.51135 21.7356 5.61819ZM12.2634 5.61819C12.2634 8.0613 13.9715 9.82654 16.3572 9.82654C18.7429 9.82654 20.4369 8.0613 20.4369 5.61819C20.4369 3.17509 18.7429 1.42396 16.3572 1.42396C13.9715 1.42396 12.2634 3.17509 12.2634 5.61819Z" fill="white"/>
<path d="M67.3583 10.6032H68.5864L69.4334 8.37196H74.5012L75.3482 10.6032H76.5763L72.8637 0.647228H71.1133L67.3583 10.6032ZM69.8145 7.31281L71.9179 1.77699H72.045L74.1342 7.31281H69.8145Z" fill="white"/>
<path fill-rule="evenodd" clip-rule="evenodd" d="M66.933 10.8974L70.9099 0.353027H73.0679L76.9999 10.8974H75.1453L74.2983 8.66617H69.6363L68.7893 10.8974H66.933ZM69.4334 8.37196H74.5012L75.3482 10.6032H76.5763L72.8637 0.647228H71.1133L67.3583 10.6032H68.5864L69.4334 8.37196ZM69.8145 7.31281H74.1342L72.045 1.77699H71.9179L69.8145 7.31281ZM70.241 7.01861H73.7088L71.9807 2.43973L70.241 7.01861Z" fill="white"/>
<path d="M0.294094 24.7058H1.57869V14.7498H0.294094V24.7058Z" fill="white"/>
<path d="M8.21698 24.7058H9.50158V15.8795H12.8048V14.7498H4.92783V15.8795H8.21698V24.7058Z" fill="white"/>
<path fill-rule="evenodd" clip-rule="evenodd" d="M0 25V14.4556H1.87279V25H0ZM1.57869 24.7058H0.294094V14.7498H1.57869V24.7058ZM7.92288 25V16.1737H4.63374V14.4556H13.0989V16.1737H9.79567V25H7.92288ZM9.50158 24.7058H8.21698V15.8795H4.92783V14.7498H12.8048V15.8795H9.50158V24.7058Z" fill="white"/>
</svg>
