<svg width="74" height="77" viewBox="0 0 74 77" fill="none" xmlns="http://www.w3.org/2000/svg">
<path fill-rule="evenodd" clip-rule="evenodd" d="M42.4805 3.04285H18.3149V73.9131H42.4805V3.04285ZM16.0134 0.719238V76.2367H44.7819V0.719238H16.0134Z" fill="#282828"/>
<path fill-rule="evenodd" clip-rule="evenodd" d="M45.0067 55.937C59.7383 55.937 71.6805 43.9947 71.6805 29.2631C71.6805 14.5315 59.7383 2.58924 45.0067 2.58924C30.2751 2.58924 18.3328 14.5315 18.3328 29.2631C18.3328 43.9947 30.2751 55.937 45.0067 55.937ZM45.0067 58.2564C61.0193 58.2564 74 45.2757 74 29.2631C74 13.2505 61.0193 0.269775 45.0067 0.269775C28.9941 0.269775 16.0134 13.2505 16.0134 29.2631C16.0134 45.2757 28.9941 58.2564 45.0067 58.2564Z" fill="#282828"/>
<path d="M12.1988 74.8884V73.4968H7.56352V71.6802C7.56352 70.9399 7.42471 70.2955 7.1471 69.7471C6.86948 69.1987 6.47808 68.7737 5.97291 68.472C5.46319 68.1658 4.86699 68.0127 4.18433 68.0127C3.49256 68.0127 2.90547 68.1658 2.42305 68.472C1.94063 68.7737 1.572 69.1987 1.31713 69.7471C1.06227 70.2955 0.934841 70.9399 0.934841 71.6802V74.8884H12.1988ZM6.42347 73.4968H2.05441V72.0573C2.05441 71.2895 2.23873 70.6634 2.60737 70.179C2.97146 69.6945 3.50849 69.4523 4.21846 69.4523C4.91933 69.4523 5.46319 69.6945 5.85003 70.179C6.23232 70.6634 6.42347 71.2895 6.42347 72.0573V73.4968Z" fill="#282828"/>
<path d="M12.4173 62.0843C12.4173 61.2937 12.2671 60.5534 11.9667 59.8633C11.6663 59.1732 11.2499 58.5677 10.7174 58.0467C10.1804 57.5257 9.55918 57.1189 8.85376 56.8265C8.14379 56.5294 7.38375 56.3809 6.57366 56.3809C5.75901 56.3809 4.99898 56.5294 4.29355 56.8265C3.58813 57.1189 2.96918 57.5257 2.4367 58.0467C1.89967 58.5677 1.48097 59.1732 1.1806 59.8633C0.880228 60.5534 0.730042 61.2937 0.730042 62.0843C0.730042 62.875 0.880228 63.6153 1.1806 64.3054C1.48097 64.9955 1.89967 65.601 2.4367 66.122C2.96918 66.643 3.58813 67.052 4.29355 67.3491C4.99898 67.6416 5.75901 67.7878 6.57366 67.7878C7.38375 67.7878 8.14379 67.6416 8.85376 67.3491C9.55918 67.052 10.1804 66.643 10.7174 66.122C11.2499 65.601 11.6663 64.9955 11.9667 64.3054C12.2671 63.6153 12.4173 62.875 12.4173 62.0843ZM11.0792 62.0843C11.0792 62.6785 10.9655 63.2314 10.7379 63.7433C10.5104 64.2506 10.1941 64.6961 9.78901 65.08C9.37941 65.4593 8.90155 65.7564 8.35541 65.9712C7.80473 66.1814 7.21081 66.2865 6.57366 66.2865C5.9365 66.2865 5.34486 66.1814 4.79873 65.9712C4.24804 65.7564 3.77018 65.4593 3.36513 65.08C2.95553 64.6961 2.63695 64.2506 2.4094 63.7433C2.18184 63.2314 2.06807 62.6785 2.06807 62.0843C2.06807 61.4902 2.18184 60.9395 2.4094 60.4323C2.63695 59.9204 2.95553 59.4748 3.36513 59.0955C3.77018 58.7116 4.24804 58.4146 4.79873 58.2043C5.34486 57.9895 5.9365 57.8822 6.57366 57.8822C7.21081 57.8822 7.80473 57.9895 8.35541 58.2043C8.90155 58.4146 9.37941 58.7116 9.78901 59.0955C10.1941 59.4748 10.5104 59.9204 10.7379 60.4323C10.9655 60.9395 11.0792 61.4902 11.0792 62.0843Z" fill="#282828"/>
<path d="M12.1988 55.2437V49.3071H10.9768V53.8521H0.934841V55.2437H12.1988Z" fill="#282828"/>
<path d="M12.1988 46.9991V45.6075H7.2768L0.934841 41.6521V43.3316L5.82955 46.3067L0.934841 49.275V50.9545L7.2768 46.9991H12.1988Z" fill="#282828"/>
<path d="M12.1988 43.513V42.0185L8.9152 40.7572V36.0203L12.1988 34.7658V33.2645L0.934841 37.7409V39.0366L12.1988 43.513ZM7.69323 40.2842L2.78486 38.3922L7.69323 36.4933V40.2842Z" fill="#282828"/>
<path d="M12.1988 32.5982V31.2066H3.28321L12.1988 25.4894V24.0978H0.934841V25.4894H9.85728L0.934841 31.2066V32.5982H12.1988Z" fill="#282828"/>
<path d="M12.1988 23.4264V21.9319L8.9152 20.6706V15.9337L12.1988 14.6792V13.178L0.934841 17.6544V18.95L12.1988 23.4264ZM7.69323 20.1976L2.78486 18.3056L7.69323 16.4067V20.1976Z" fill="#282828"/>
<path d="M12.1988 10.582V9.19042H0.934841V10.582H12.1988Z" fill="#282828"/>
<path d="M12.1988 5.84415V4.45256H2.17729V1.16896H0.934841V9.1209H2.17729V5.84415H12.1988Z" fill="#282828"/>
</svg>